# xmcd CD database file
#
# Track frame offsets:
#	150
#	18975
#	39000
#	57300
#	75602
#	95403
#	120303
#	138005
#	154130
#	173705
#
# Disc length: 2547 seconds
#
# Revision: 3
# Processed by: cddbd v1.4PL0 Copyright (c) Steve Scherf et al.
# Submitted via: CDex 1.50Beta5
#
DISCID=6909f10a
DTITLE=Enrique Iglesias - Enrique Iglesias
DYEAR=1995
DGENRE=
TTITLE0=No Llores Por Mi
TTITLE1=Trapecista
TTITLE2=Por Amarte
TTITLE3=Si Tu Te Vas
TTITLE4=Si Juras Regresar
TTITLE5=Experiencia Religiosa
TTITLE6=Falta Tanto Amor
TTITLE7=Inalcanzable
TTITLE8=Muñeca Cruel
TTITLE9=Inventame
EXTD=YEAR: 1995
EXTT0=
EXTT1=
EXTT2=
EXTT3=
EXTT4=
EXTT5=
EXTT6=
EXTT7=
EXTT8=
EXTT9=
PLAYORDER=
